<svg aria-hidden="true" style="position: absolute; width: 0; height: 0; overflow: hidden;" version="1.1" xmlns="http://www.w3.org/2000/svg" xmlns:xlink="http://www.w3.org/1999/xlink">
<defs>
<symbol id="icon-C" viewBox="0 0 58 32">
<path d="M20.104 15.884v7.156c-2.527 0.873-3.918 1.152-5.493 1.152-4.248 0-7.434-1.606-9.448-3.491-2.38-2.269-3.698-5.446-3.698-8.483 0-3.316 1.501-6.458 3.698-8.588 2.16-2.095 5.42-3.631 9.228-3.631 1.172 0 3.076 0.175 5.713 1.187v7.226c-2.051-2.409-4.468-2.548-5.529-2.548-1.831 0-3.222 0.524-4.394 1.536-1.501 1.327-2.124 3.142-2.124 4.783 0 1.606 0.696 3.386 1.977 4.538 1.062 0.943 2.746 1.606 4.541 1.606 0.952 0 3.296-0.105 5.529-2.444z"></path>
<path d="M22.772 13.894v-4.189h5.566v-5.341h4.76v5.341h5.566v4.189h-5.566v5.341h-4.76v-5.341h-5.566z"></path>
<path d="M41.081 13.894v-4.189h5.566v-5.341h4.76v5.341h5.566v4.189h-5.566v5.341h-4.76v-5.341h-5.566z"></path>
<path d="M0 27.159h58.182v4.841h-58.182v-4.841z"></path>
</symbol>
<symbol id="icon-opacity" viewBox="0 0 32 32">
<path d="M23.547 10.66l-7.547-7.533-7.547 7.533c-2.080 2.080-3.12 4.853-3.12 7.52s1.040 5.48 3.12 7.56 4.813 3.133 7.547 3.133c2.733 0 5.467-1.053 7.547-3.133s3.12-4.893 3.12-7.56c0-2.667-1.040-5.44-3.12-7.52zM8 18.66c0.013-2.667 0.827-4.36 2.347-5.867l5.653-5.773 5.653 5.84c1.52 1.493 2.333 3.133 2.347 5.8h-16z"></path>
</symbol>
<symbol id="icon-device_hub" viewBox="0 0 32 32">
<path d="M22.667 21.333l-5.333-5.333v-4.24c1.547-0.56 2.667-2.027 2.667-3.76 0-2.213-1.787-4-4-4s-4 1.787-4 4c0 1.733 1.12 3.2 2.667 3.76v4.24l-5.333 5.333h-5.333v6.667h6.667v-4.067l5.333-5.6 5.333 5.6v4.067h6.667v-6.667h-5.333z"></path>
</symbol>
<symbol id="icon-science" viewBox="0 0 32 32">
<path d="M17.333 15.107l6.667 8.893h-16l6.667-8.893v-7.107h2.667zM21.28 5.333h-10.56c-0.56 0-0.867 0.64-0.52 1.080l1.8 2.253v5.56l-7.733 10.307c-0.653 0.88-0.027 2.133 1.067 2.133h21.333c1.093 0 1.72-1.253 1.067-2.133l-7.733-10.307v-5.56l1.8-2.253c0.347-0.44 0.040-1.080-0.52-1.080z"></path>
</symbol>
<symbol id="icon-grass" viewBox="0 0 32 32">
<path d="M16 26.667h-13.333v-2.667h7.667c-0.973-3.747-3.92-6.68-7.667-7.653 0.853-0.213 1.747-0.347 2.667-0.347 5.893 0 10.667 4.773 10.667 10.667zM29.333 16.347c-0.853-0.213-1.747-0.347-2.667-0.347-3.907 0-7.307 2.107-9.173 5.24 0.387 0.88 0.707 1.8 0.893 2.76 0.173 0.867 0.267 1.76 0.267 2.667h10.667v-2.667h-7.667c0.987-3.747 3.933-6.68 7.68-7.653zM20.853 14.693c1.040-2.787 2.973-5.12 5.453-6.667-5.72 0.187-10.307 4.867-10.307 10.64 0 0.013 0 0.027 0 0.027 1.267-1.693 2.933-3.067 4.853-4zM15.227 11.8c-1.12-2.92-3.387-5.28-6.293-6.467 1.92 2.48 3.067 5.573 3.067 8.947 0 0.28-0.040 0.547-0.053 0.813 0.573 0.32 1.107 0.693 1.627 1.093 0.28-1.573 0.867-3.053 1.653-4.387z"></path>
</symbol>
<symbol id="icon-biotech" viewBox="0 0 32 32">
<path d="M9.333 26c-1.467 0-2.667 1.2-2.667 2.667h18.667c0-1.467-1.2-2.667-2.667-2.667h-5.333v-2.667h4c1.467 0 2.667-1.2 2.667-2.667h-10.667c-2.213 0-4-1.787-4-4 0-1.453 0.787-2.72 1.96-3.427 0.547 0.787 1.413 1.333 2.44 1.413 0.933 0.080 1.813-0.253 2.467-0.827l0.787 2.147 1.253-0.453 0.453 1.253 2.507-0.907-0.453-1.253 1.253-0.453-3.653-10.027-1.253 0.453-0.453-1.253-2.507 0.907 0.453 1.253-1.253 0.467 0.747 2.067c-1.56-0.053-2.92 1-3.307 2.48-2.413 1.013-4.107 3.387-4.107 6.16 0 3.68 2.987 6.667 6.667 6.667v2.667h-4zM17.147 6.693l2.28 6.267-1.253 0.453-2.28-6.267 1.253-0.453zM14 10c0.733 0 1.333 0.6 1.333 1.333s-0.6 1.333-1.333 1.333c-0.733 0-1.333-0.6-1.333-1.333s0.6-1.333 1.333-1.333z"></path>
</symbol>
<symbol id="icon-cross" viewBox="0 0 32 32">
<path d="M31.708 25.708c0 0 0 0 0 0l-9.708-9.708 9.708-9.708c0 0 0 0 0 0 0.105-0.105 0.18-0.227 0.229-0.357 0.133-0.356 0.057-0.771-0.229-1.057l-4.586-4.586c-0.286-0.286-0.702-0.361-1.057-0.229-0.13 0.048-0.252 0.124-0.357 0.228 0 0 0 0 0 0l-9.708 9.708-9.708-9.708c0 0 0 0 0 0-0.105-0.104-0.227-0.18-0.357-0.228-0.356-0.133-0.771-0.057-1.057 0.229l-4.586 4.586c-0.286 0.286-0.361 0.702-0.229 1.057 0.049 0.13 0.124 0.252 0.229 0.357 0 0 0 0 0 0l9.708 9.708-9.708 9.708c0 0 0 0 0 0-0.104 0.105-0.18 0.227-0.229 0.357-0.133 0.355-0.057 0.771 0.229 1.057l4.586 4.586c0.286 0.286 0.702 0.361 1.057 0.229 0.13-0.049 0.252-0.124 0.357-0.229 0 0 0 0 0 0l9.708-9.708 9.708 9.708c0 0 0 0 0 0 0.105 0.105 0.227 0.18 0.357 0.229 0.356 0.133 0.771 0.057 1.057-0.229l4.586-4.586c0.286-0.286 0.362-0.702 0.229-1.057-0.049-0.13-0.124-0.252-0.229-0.357z"></path>
</symbol>
<symbol id="icon-menu" viewBox="0 0 48 32">
<path fill="#ad4844" style="fill: var(--color1, #ad4844)" d="M0 32h48v-5.333h-48v5.333zM0 18.667h48v-5.333h-48v5.333zM0 0v5.333h48v-5.333h-48z"></path>
</symbol>
<symbol id="icon-Arthrohard_logo-TOP_vector" viewBox="0 0 251 32">
<path fill="#111" style="fill: var(--color2, #111)" d="M22.381 31.421l-2.912-7.165h-11.856l-3.037 7.165h-4.576l13.811-31.421 13.146 31.421h-4.576zM9.36 19.983h8.403l-4.118-10.058-4.285 10.058z"></path>
<path fill="#111" style="fill: var(--color2, #111)" d="M30.462 1.736h4.95c3.37 0 5.533 0.445 7.322 1.736 3.037 2.181 3.286 5.697 3.286 6.987 0 4.273-2.454 7.388-6.157 8.278l8.653 12.684h-5.117l-7.946-12.15h-0.749v12.15h-4.243v-29.686zM34.705 5.919v9.435h1.331c1.165 0 5.907-0.134 5.907-4.851 0-4.184-3.702-4.584-5.782-4.584h-1.456z"></path>
<path fill="#111" style="fill: var(--color2, #111)" d="M66.745 6.008h-6.365v25.413h-4.243v-25.413h-6.365v-4.273h16.973v4.273z"></path>
<path fill="#111" style="fill: var(--color2, #111)" d="M74.721 1.736v11.75h11.898v-11.75h4.243v29.686h-4.243v-13.663h-11.898v13.663h-4.243v-29.686h4.243z"></path>
<path fill="#111" style="fill: var(--color2, #111)" d="M97.534 1.736h4.951c3.37 0 5.533 0.445 7.322 1.736 3.037 2.181 3.286 5.697 3.286 6.987 0 4.273-2.454 7.388-6.157 8.278l8.653 12.684h-5.117l-7.946-12.15h-0.749v12.15h-4.243v-29.686zM101.778 5.919v9.435h1.331c1.165 0 5.907-0.134 5.907-4.851 0-4.184-3.702-4.584-5.782-4.584h-1.456z"></path>
<path fill="#111" style="fill: var(--color2, #111)" d="M132.861 1.202c8.32 0 14.435 6.676 14.435 15.399s-6.115 15.399-14.435 15.399c-8.32 0-14.435-6.676-14.435-15.399s6.115-15.399 14.435-15.399zM132.861 27.817c5.949 0 10.192-4.629 10.192-11.216s-4.243-11.216-10.192-11.216c-5.949 0-10.192 4.629-10.192 11.216s4.243 11.216 10.192 11.216z"></path>
<path fill="#ad4844" style="fill: var(--color1, #ad4844)" d="M156.865 1.736v11.75h11.898v-11.75h4.243v29.686h-4.243v-13.663h-11.898v13.663h-4.243v-29.686h4.243z"></path>
<path fill="#ad4844" style="fill: var(--color1, #ad4844)" d="M198.898 31.421l-2.912-7.165h-11.856l-3.037 7.165h-4.576l13.811-31.421 13.146 31.421h-4.576zM185.877 19.983h8.403l-4.118-10.058-4.285 10.058z"></path>
<path fill="#ad4844" style="fill: var(--color1, #ad4844)" d="M206.979 1.736h4.95c3.37 0 5.533 0.445 7.322 1.736 3.037 2.181 3.286 5.697 3.286 6.987 0 4.273-2.454 7.388-6.157 8.278l8.653 12.684h-5.117l-7.946-12.15h-0.749v12.15h-4.243v-29.686zM211.222 5.919v9.435h1.331c1.165 0 5.907-0.134 5.907-4.851 0-4.184-3.702-4.584-5.782-4.584h-1.456z"></path>
<path fill="#ad4844" style="fill: var(--color1, #ad4844)" d="M229.201 1.736h5.824c3.869 0 7.239 0.445 10.317 2.893 3.37 2.715 5.325 7.032 5.325 11.972s-1.914 9.213-5.574 11.972c-3.245 2.448-6.282 2.848-10.151 2.848h-5.741v-29.686zM233.444 6.008v21.14h1.831c2.080 0 4.95-0.178 7.363-2.092 1.914-1.558 3.786-4.406 3.786-8.456 0-3.917-1.747-6.987-3.744-8.545-2.413-1.869-5.366-2.047-7.405-2.047h-1.831z"></path>
</symbol>
</defs>
</svg>
